<svg width="512" height="512" viewBox="0 0 512 512" xmlns="http://www.w3.org/2000/svg">
 <defs>
  <linearGradient id="linearGradient4242" x2="512" y1="352" gradientUnits="userSpaceOnUse">
   <stop style="stop-color:#de8c59" offset="0"/>
   <stop style="stop-color:#d8a69b" offset="1"/>
  </linearGradient>
 </defs>
 <rect width="512" height="512" style="fill-rule:evenodd;fill:url(#linearGradient4242)"/>
 <g id="wolkie">
  <path d="m258.42 28.563c-27.448-2.8874-59.989 13.227-62.333 36.253-14.141-6.6695-29.242 6.3016-25.924 22.711-11.109 3.4866-24.091 9.0787-30.905 18.584-9.898-13.162-24.157-20.706-39.142-20.709-26.882 0.0733-50.746 24.394-48.995 57.822-22.649 3.103-37.563 25.442-37.595 46.985 0.01043 23.768 14.99 57.043 37.386 57.043h168.26c45.89 0 108.63 7.0124 131.81-14.567 18.285-17.018 5.6627-39.772 5.6627-39.772 8.2621-8.4642 12.861-18.953 12.161-34.005-5e-3 -20.788-11.625-42.189-27.443-46.731 4.6339-12.65 2.317-25.212-4.9567-30.296-7.2737-5.0839-17.282-5.068-27.601 1.5734-3.5052-34.672-22.947-52.002-50.394-54.89z" style="fill-opacity:.99651;fill-rule:evenodd;fill:#3a3a3a"/>
  <path d="m272.04 23.174c-25.794-2.7134-56.375 12.43-58.577 34.069-13.289-6.2677-27.481 5.9219-24.362 21.343-10.439 3.2766-22.639 8.5317-29.043 17.464-9.3017-12.369-22.702-19.459-36.784-19.462-25.262 0.0689-47.689 22.924-46.043 54.339-21.284 2.9161-35.3 23.91-35.33 44.154 0.0098 22.336 14.087 53.606 35.134 53.606h158.13c43.126 0 102.08 6.5899 123.87-13.69 17.183-15.993 5.3216-37.376 5.3216-37.376 7.7644-7.9543 12.086-17.811 11.428-31.956-5e-3 -19.535-10.925-39.647-25.79-43.916 4.3547-11.888 2.1774-23.693-4.6581-28.471-6.8355-4.7776-16.241-4.7626-25.938 1.4786-3.294-32.583-21.564-48.869-47.358-51.583z" style="fill-opacity:.99651;fill-rule:evenodd;fill:#ac9cff"/>
  <path d="m260.45 23.1c-3.6417-1.4841 20.586 4.6764 29.623 11.836 15.064 11.935 21.799 21.27 29.328 39.821 9.2724-1.2619 17.117 0.99572 22.387 5.5519 5.2696 4.5562 6.6324 12.069 8.2092 21.44 5.5716 6.2126 9.5527 11.252 15.305 22.188 6.1313 11.657 7.1106 24.7 9.7007 33.748 5.0791-27.344-9.729-52.088-25.006-55.936 4.3547-11.888 2.1774-23.693-4.6581-28.471-6.8355-4.7776-16.241-4.7626-25.938 1.4786-3.294-32.583-23.3-54.044-58.951-51.657z" style="fill-opacity:.9991;fill-rule:evenodd;fill:#c1b5ff"/>
  <path d="m261.97 57.227a51.605 51.605 0 0 0-50.178 29.326 51.896 52.422 4.1185 0 1 40.956-15.855 51.896 52.422 4.1185 0 1 47.996 56.014 51.896 52.422 4.1185 0 1-3.7513 15.895 51.605 51.605 0 0 0 12.743-30.201 51.605 51.605 0 0 0-47.765-55.178z" style="fill-rule:evenodd;fill:#c1b5ff"/>
  <path d="m184.01 97.82a30.851 30.851 0 0 0-27.437 21.317 31.339 31.025 86.577 0 1 23.029-12.61 31.339 31.025 86.577 0 1 32.84 29.431 31.339 31.025 86.577 0 1-0.97601 9.7144 30.851 30.851 0 0 0 5.1825-18.899 30.851 30.851 0 0 0-32.638-28.954z" style="fill-rule:evenodd;fill:#c1b5ff"/>
  <path d="m252.61 108.51a23.723 23.723 0 0 0-21.099 16.392 24.099 23.857 86.577 0 1 17.709-9.697 24.099 23.857 86.577 0 1 25.253 22.632 24.099 23.857 86.577 0 1-0.75053 7.4701 23.723 23.723 0 0 0 3.9852-14.533 23.723 23.723 0 0 0-25.098-22.264z" style="fill-rule:evenodd;fill:#c1b5ff"/>
  <path d="m146.67 141.7c-22.191-8.731-50.971-2.1904-64.407 15.638 32.231-14.303 54.607-11.07 65.218-4.613 10.611 6.4566 18.062 11.708 27.328 43.419 0.97231-24.283-5.9478-45.713-28.139-54.444z" style="fill-rule:evenodd;fill:#c1b5ff"/>
  <path d="m239.42 168.03a30.851 30.851 0 0 0-21.129 27.582 31.339 31.025 71.876 0 1 19.075-18.042 31.339 31.025 71.876 0 1 39.234 20.133 31.339 31.025 71.876 0 1 1.5212 9.6441 30.851 30.851 0 0 0 0.21686-19.595 30.851 30.851 0 0 0-38.917-19.723z" style="fill-rule:evenodd;fill:#c1b5ff"/>
  <path d="m344.78 132.67c-6.174-3.811-27.938-0.91205-32.645 10.398 10.169-6.9493 20.663-8.2246 28.006-4.8122s13.838 7.032 17.194 22.34c1.2509-17.137-6.381-24.115-12.555-27.926z" style="fill-rule:evenodd;fill:#c1b5ff"/>
  <path d="m252.61 108.51a23.723 23.723 0 0 0-21.099 16.392 24.099 23.857 86.577 0 1 17.709-9.697 24.099 23.857 86.577 0 1 25.253 22.632 24.099 23.857 86.577 0 1-0.75053 7.4701 23.723 23.723 0 0 0 3.9852-14.533 23.723 23.723 0 0 0-25.098-22.264z" style="fill-rule:evenodd;fill:#c1b5ff"/>
  <path d="m339.36 176.62c-9.4494-3.263-33.422-1.0272-39.885 12.354 10.902-4.441 27.15-8.7429 36.966-3.807 9.8167 4.936 16.873 9.1369 22.404 23.343 1.2509-17.137-10.037-28.628-19.486-31.891z" style="fill-rule:evenodd;fill:#c1b5ff"/>
  <animateMotion begin="0s" calcMode="spline" dur="3s" keySplines="0.5000 1.000 0.5000 0.000;" keyTimes="0; 1" path="M 0 0 v 64 v -64" repeatCount="indefinite"/>
 </g>
 <path d="m0 352c41.913-29.409 82.245-31.505 120.12-23.316 37.877 8.1895 92.841 47.541 135.88 53.123s86.62-10.161 128-23.054 88.834-44.69 128-6.7528v160h-512v-160z" style="fill-opacity:.99651;fill-rule:evenodd;fill:#3174c5"/>
 <path d="m84.839 324.54c26.444-1.2176 53.769 6.992 93.503 27.652 24.533 12.756 52.271 25.685 79.395 29.802-20.075 3.0271-42.436-4.5877-42.436-4.5877s-46.686-22.664-72.072-33.848c-19.97-8.7979-54.255-16.481-58.389-19.017z" style="fill-opacity:.99864;fill-rule:evenodd;fill:#90b5e4"/>
 <path d="m24.987 337.48c5.996 29.787 21.392 53.627 35.778 67.616 14.386 13.989 35.742 32.106 75.153 36.753-46.197 10.198-69.945-8.0378-88.274-25.724-18.329-17.686-40.925-61.485-22.657-78.645z" style="fill-rule:evenodd;fill:#6d9fdb"/>
 <path d="m338.23 387.78c10.493 30.609 30.078 53.625 47.221 66.383 17.143 12.758 42.22 28.9 84.477 28.298-47.346 17.223-74.966 1.2892-96.787-14.821-21.822-16.11-51.798-59.191-34.91-79.86z" style="fill-opacity:.99866;fill-rule:evenodd;fill:#6d9fdb"/>
 <path d="m201.11 398.24c7.0159 20.466 20.112 35.856 31.574 44.387 11.462 8.5308 28.23 19.324 56.485 18.921-31.657 11.516-50.125 0.862-64.716-9.91-14.591-10.772-34.634-39.578-23.342-53.398z" style="fill-opacity:.99571;fill-rule:evenodd;fill:#a5c4e8"/>
 <path d="m463.2 334.18c15.868-1.12 27.567 3.0724 34.379 7.0291s9.8219 6.7346 14.423 10.792v10.278s-16.123-15.284-23.996-19.499-23.553-6.4261-24.805-8.6006z" style="fill-rule:evenodd;fill:#6d9fdb"/>
 <ellipse transform="rotate(30.98)" cx="592.02" cy="105.31" rx="36.475" ry="16.786" style="fill-opacity:.99236;fill-rule:evenodd;fill:#a5c4e8"/>
</svg>
